/vscmnt/brussel_pixiu_data/_data_brussel/112/vsc11236/PredSimResults/SUBJ09opt3D/weighted-trackIG/worker_02.mot
version=1
nRows=6
nColumns=50
inDegrees=yes
endheader
                time	         pelvis_tilt	         pelvis_list	     pelvis_rotation	           pelvis_tx	           pelvis_ty	           pelvis_tz	       hip_flexion_r	     hip_adduction_r	      hip_rotation_r	        knee_angle_r	       ankle_angle_r	         mtp_angle_r	       hip_flexion_l	     hip_adduction_l	      hip_rotation_l	        knee_angle_l	       ankle_angle_l	         mtp_angle_l	    lumbar_extension	      lumbar_bending	     lumbar_rotation	 ercspn_r/activation	 intobl_r/activation	 extobl_r/activation	    abd_r/activation	    add_r/activation	hamstrings_r/activation	bifemsh_r/activation	glut_max_r/activation	iliopsoas_r/activation	rect_fem_r/activation	  vasti_r/activation	gastroc_r/activation	 soleus_r/activation	tib_ant_r/activation	 ercspn_l/activation	 intobl_l/activation	 extobl_l/activation	    abd_l/activation	    add_l/activation	hamstrings_l/activation	bifemsh_l/activation	glut_max_l/activation	iliopsoas_l/activation	rect_fem_l/activation	  vasti_l/activation	gastroc_l/activation	 soleus_l/activation	tib_ant_l/activation	
          0.00000000	         -4.20824118	         -0.96921318	          7.66758680	          0.00000000	          0.99028374	         -0.00109407	         28.39574002	         -0.93355674	         -8.36568500	         -6.13011701	          3.48265263	          0.24093950	        -13.27875595	         -2.38827515	         -5.94437219	        -11.39231234	          3.46357379	         37.94854311	        -13.11869986	         -1.36459371	         -7.95446251	          0.02825758	          0.14900355	          0.03473122	          0.01000018	          0.27525383	          0.05140751	          0.08068958	          0.09409189	          0.11365594	          0.01488441	          0.01000419	          0.01448122	          0.01482730	          0.32640865	          0.03323705	          0.01000193	          0.01000098	          0.03108766	          0.01217502	          0.02604494	          0.22055421	          0.01246111	          0.05435310	          0.01000339	          0.01000187	          0.30173535	          0.22222653	          0.01177901	
          0.01306213	         -4.25007723	         -1.09081654	          7.63059516	          0.02035706	          0.98807914	         -0.00029745	         28.15847916	         -0.73245474	         -8.55803481	         -7.67545609	          3.06744298	          0.20731276	        -13.76110643	         -2.75482002	         -6.42416684	        -12.46742367	          2.31471036	         39.58741500	        -12.55084260	         -0.87633860	         -8.08840892	          0.02320688	          0.12236469	          0.02852204	          0.07861642	          0.22604572	          0.06174291	          0.06626462	          0.11559861	          0.09333645	          0.01222352	          0.01000250	          0.01217980	          0.01217794	          0.36688678	          0.02729663	          0.01000047	          0.01000146	          0.02552981	          0.01000352	          0.02249669	          0.18112956	          0.01023363	          0.04644028	          0.01000173	          0.01000094	          0.26756928	          0.19815456	          0.01000016	
          0.02612425	         -4.27186538	         -1.22887200	          7.56188871	          0.04091721	          0.98620124	          0.00059424	         27.81737674	         -0.51330887	         -8.76938543	         -9.06761221	          2.46263241	          0.19833899	        -14.01243828	         -3.17226699	         -6.91915476	        -13.99129708	          1.03100396	         41.13783204	        -11.97763301	         -0.37008444	         -8.18268867	          0.02179013	          0.10048828	          0.02342293	          0.13134983	          0.22408796	          0.05909891	          0.05441842	          0.14443609	          0.07664971	          0.01003846	          0.01000572	          0.01000298	          0.01000106	          0.41315585	          0.02242185	          0.01000053	          0.01000105	          0.02096559	          0.01000222	          0.02850974	          0.14874887	          0.01000072	          0.08290304	          0.01000258	          0.01000130	          0.21973344	          0.16273018	          0.01000027	
          0.03918638	         -4.27653216	         -1.37640914	          7.46308712	          0.06127205	          0.98487501	          0.00159190	         27.52932882	         -0.28921371	         -9.00523956	        -10.56416778	          1.90028784	          0.16433158	        -13.93068134	         -3.64380899	         -7.42388699	        -16.09689017	         -0.35586098	         42.39569618	        -11.44634260	          0.14721447	         -8.23602489	          0.02798634	          0.08252294	          0.01923546	          0.18477202	          0.22756409	          0.06044541	          0.04468999	          0.15210282	          0.06294624	          0.01000091	          0.11481877	          0.01000207	          0.01000128	          0.43710358	          0.07887129	          0.01000136	          0.01000067	          0.01721736	          0.03788831	          0.04253661	          0.12215708	          0.01000068	          0.06815828	          0.01000110	          0.01000063	          0.18044935	          0.13363722	          0.01000025	
          0.05224851	         -4.26766315	         -1.53416942	          7.34259959	          0.08114181	          0.98432344	          0.00267433	         27.30977243	         -0.05632760	         -9.21051239	        -12.21499107	          1.70645826	          0.12036708	        -13.45035620	         -4.17835858	         -7.95668934	        -18.84621147	         -1.82717100	         43.07673111	        -10.98311181	          0.67674353	         -8.25277720	          0.02839857	          0.06776947	          0.01579665	          0.20367948	          0.23801785	          0.05642240	          0.03670078	          0.18724118	          0.05169269	          0.01000132	          0.21114188	          0.01000204	          0.01000099	          0.43491411	          0.09245708	          0.01000110	          0.01000080	          0.01413925	          0.13498805	          0.04371081	          0.10031959	          0.01000028	          0.07168516	          0.01000084	          0.01000032	          0.14818846	          0.10974547	          0.01000051	
          0.06531063	         -4.24898257	         -1.68065138	          7.19757120	          0.10036262	          0.98470133	          0.00380161	         27.08665425	          0.17555395	         -9.37371131	        -13.88496454	          1.95508029	          0.08906455	        -12.53764598	         -4.76335712	         -8.55748842	        -22.28207557	         -3.27488115	         42.71147212	        -10.60414950	          1.19634534	         -8.22953270	          0.02361562	          0.05565364	          0.01297269	          0.20414216	          0.25823166	          0.06037829	          0.03013995	          0.18907105	          0.04245106	          0.01000115	          0.25578550	          0.01000207	          0.01000136	          0.38760499	          0.09654469	          0.01000129	          0.01000073	          0.01161147	          0.19592557	          0.04450032	          0.08238672	          0.01000025	          0.05887275	          0.01000081	          0.01000023	          0.12169521	          0.09012510	          0.01000031	
